<svg height="512" viewBox="0 0 512 512" width="512" xmlns="http://www.w3.org/2000/svg"><g id="flat"><path d="m440 472a8 8 0 0 1 -8-8v-40a8 8 0 0 1 16 0v40a8 8 0 0 1 -8 8z" fill="#5f4623"/><path d="m352 472a8 8 0 0 1 -8-8v-40a8 8 0 0 1 16 0v40a8 8 0 0 1 -8 8z" fill="#5f4623"/><path d="m265.56 375.95a24 24 0 0 0 8.69-45.65 32 32 0 0 0 -6.96-43.83 55.964 55.964 0 0 0 -15.23-65.3 24 24 0 0 0 -40.06-26.43 23.994 23.994 0 0 0 -40.23.35 23.993 23.993 0 0 0 -19.77-1.72 22.962 22.962 0 0 0 -3.93 1.81z" fill="#cbcbcb"/><path d="m184 64a24 24 0 0 0 -46.652-7.932c-.448-.037-.893-.068-1.348-.068a15.991 15.991 0 0 0 -14.575 9.425 15.99 15.99 0 0 0 -9.425 14.575 16 16 0 0 0 16 16h56a16 16 0 0 0 16-16 16 16 0 0 0 -16-16z" fill="#eaeae8"/><path d="m432 112a24 24 0 0 0 -46.652-7.932c-.445-.037-.893-.068-1.348-.068a15.991 15.991 0 0 0 -14.575 9.425 15.99 15.99 0 0 0 -9.425 14.575 16 16 0 0 0 16 16h56a16 16 0 0 0 16-16 16 16 0 0 0 -16-16z" fill="#eaeae8"/><path d="m24 240 48-64 56 .59 41.636 51.773 158.364 243.637h-304z" fill="#0bafea"/><path d="m104 368a8 8 0 0 1 -8-8v-48a8 8 0 0 1 16 0v48a8 8 0 0 1 -8 8z" fill="#5f4623"/><path d="m200 440a8 8 0 0 1 -8-8v-32a8 8 0 0 1 16 0v32a8 8 0 0 1 -8 8z" fill="#5f4623"/><path d="m384 408-32-64-32 64h16l-16 32h64l-16-32z" fill="#02a437"/><path d="m472 408-32-64-32 64h16l-16 32h64l-16-32z" fill="#aac16b"/><path d="m480 472h-168a8 8 0 0 1 0-16h168a8 8 0 0 1 0 16z" fill="#0bafea"/><path d="m256 472-24-32-80-24-16-48-40-16-32-16h-40v136z" fill="#0a9acd"/><path d="m296.006 168a8 8 0 0 1 -7.161-4.423l-.845-1.687a17.79 17.79 0 0 0 -16-9.89 8 8 0 0 1 0-16 33.7 33.7 0 0 1 30.311 18.733l.844 1.688a8 8 0 0 1 -7.149 11.579z" fill="#8feaff"/><path d="m328.006 272a8 8 0 0 1 -7.161-4.423l-.845-1.687a17.79 17.79 0 0 0 -16-9.89 8 8 0 0 1 0-16 33.7 33.7 0 0 1 30.311 18.733l.844 1.688a8 8 0 0 1 -7.149 11.579z" fill="#8feaff"/><path d="m184.007 328a7.991 7.991 0 0 1 -6.517-3.35l-16-22.4a8 8 0 0 1 13.02-9.3l16 22.4a8 8 0 0 1 -6.5 12.65z" fill="#0a9acd"/><path d="m152.007 283.2a7.992 7.992 0 0 1 -6.517-3.351l-19.428-27.2a8 8 0 1 1 13.019-9.3l19.429 27.2a8 8 0 0 1 -6.5 12.651z" fill="#0a9acd"/><g fill="#eaeae8"><path d="m414.4 216a7.971 7.971 0 0 1 -5.118-1.854l-9.6-8a8 8 0 0 1 10.243-12.292l9.6 8a8 8 0 0 1 -5.125 14.146z"/><path d="m384 190.667a7.969 7.969 0 0 1 -5.118-1.855l-8-6.666a8 8 0 1 1 10.244-12.292l8 6.667a8 8 0 0 1 -5.126 14.146z"/><path d="m422.4 304a7.971 7.971 0 0 1 -5.118-1.854l-9.6-8a8 8 0 0 1 10.243-12.292l9.6 8a8 8 0 0 1 -5.125 14.146z"/><path d="m392 278.667a7.969 7.969 0 0 1 -5.118-1.855l-8-6.666a8 8 0 1 1 10.244-12.292l8 6.667a8 8 0 0 1 -5.126 14.146z"/><path d="m208 168a7.973 7.973 0 0 1 -5.118-1.854l-9.6-8a8 8 0 0 1 10.243-12.292l9.6 8a8 8 0 0 1 -5.125 14.146z"/><path d="m177.6 142.667a7.964 7.964 0 0 1 -5.117-1.855l-8-6.666a8 8 0 1 1 10.243-12.292l8 6.667a8 8 0 0 1 -5.126 14.146z"/></g><path d="m104 264-24 56h48z" fill="#02a437"/><path d="m169.64 228.36-49.64-28.36-24 32-24-32-48 40 48-88h48z" fill="#eaeae8"/><path d="m200 344-24 56h48z" fill="#02a437"/><circle cx="336" cy="288" fill="#cbcbcb" r="24"/><circle cx="304" cy="200" fill="#cbcbcb" r="16"/></g></svg>