<svg height="512" viewBox="0 0 512 512" width="512" xmlns="http://www.w3.org/2000/svg"><circle cx="255.995" cy="255.995" fill="#fcd795" r="232"/><path d="m456 264a8 8 0 0 1 -8-8 191.948 191.948 0 0 0 -84.661-159.22 8 8 0 0 1 8.953-13.258 207.917 207.917 0 0 1 91.708 172.478 8 8 0 0 1 -8 8z" fill="#ffe1ad"/><path d="m60.151 304.792a8 8 0 0 1 -7.824-6.375 208.349 208.349 0 0 1 71.356-202.917 8 8 0 1 1 10.183 12.344 192.365 192.365 0 0 0 -65.875 187.323 8 8 0 0 1 -7.84 9.625z" fill="#ffe1ad"/><circle cx="247.995" cy="175.995" fill="#f5b02e" r="72"/><path d="m396.429 264-6.429-8a32 32 0 0 0 -64 0h-6.643c-13 0-24.644 9.732-25.324 22.71a24 24 0 0 0 23.967 25.29h82z" fill="#ebebeb"/><path d="m430 288h-8a32 32 0 0 0 -64 0h-8a24 24 0 0 0 0 48h80a24 24 0 0 0 0-48z" fill="#f8f8f8"/><g fill="#d38e14"><path d="m248 296a8 8 0 0 1 -8-8v-8a8 8 0 0 1 16 0v8a8 8 0 0 1 -8 8z"/><path d="m360 184h-8a8 8 0 0 1 0-16h8a8 8 0 0 1 0 16z"/><path d="m321.535 110.456a8 8 0 0 1 -5.657-13.656l5.66-5.66a8 8 0 1 1 11.313 11.312l-5.66 5.66a7.974 7.974 0 0 1 -5.656 2.344z"/><path d="m248 79.991a8 8 0 0 1 -8-8v-7.991a8 8 0 0 1 16 0v8a8 8 0 0 1 -8 7.991z"/><path d="m174.456 110.456a7.971 7.971 0 0 1 -5.656-2.344l-5.66-5.66a8 8 0 1 1 11.312-11.312l5.66 5.66a8 8 0 0 1 -5.656 13.656z"/><path d="m143.991 184h-8a8 8 0 0 1 0-16h8a8 8 0 0 1 0 16z"/><path d="m168.8 263.2a8 8 0 0 1 -5.656-13.657l5.66-5.66a8 8 0 1 1 11.312 11.313l-5.66 5.66a7.975 7.975 0 0 1 -5.656 2.344z"/></g><path d="m114.913 320a8 8 0 0 1 -8-8v-22.063a89.353 89.353 0 0 1 26.344-63.6 8 8 0 1 1 11.312 11.313 73.463 73.463 0 0 0 -21.656 52.285v22.065a8 8 0 0 1 -8 8z" fill="#905638"/><path d="m194.487 216.5-3.007-.988a61.874 61.874 0 0 0 -38.028-.152 49.572 49.572 0 0 1 36.942-26.336 8 8 0 0 0 -2.352-15.829 65.462 65.462 0 0 0 -44.088 27.167 65.445 65.445 0 0 0 -33.463-39.522 8 8 0 0 0 -7.156 14.313 49.573 49.573 0 0 1 26.93 36.511 61.817 61.817 0 0 0 -36.196-11.664h-3.156a8 8 0 0 0 0 16h3.156a45.757 45.757 0 0 1 29.948 11.177 77.038 77.038 0 0 0 -46.678 32.386 8 8 0 1 0 13.312 8.875 61.242 61.242 0 0 1 39.2-26.25l7.515-1.5 4 4a49.621 49.621 0 0 1 14.634 35.312 8 8 0 0 0 16 0 65.509 65.509 0 0 0 -19.312-46.625l-.321-.32a45.8 45.8 0 0 1 34.137-2.332l3 .984a8 8 0 1 0 4.988-15.2z" fill="#5d8668"/><path d="m128 308.365h-16a63.988 63.988 0 0 0 -62.4 49.909 232.005 232.005 0 0 0 18.486 30.091h123.914v-16a64 64 0 0 0 -64-64z" fill="#c3744c"/><path d="m421.605 370.714-9.717 7.03a40 40 0 0 1 -46.906-.01l-9.694-7.02-9.681 7.011a40 40 0 0 1 -46.92 0l-9.687-7.011-9.691 7.016a40 40 0 0 1 -46.915 0l-9.691-7.016-9.664 7a40 40 0 0 1 -46.936-.006l-9.652-6.994-9.663 7a40 40 0 0 1 -46.941-.01l-9.64-6.989-9.643 6.985a39.9 39.9 0 0 1 -17.5 7.148 231.884 231.884 0 0 0 166.355 101.587l56.536-.43a231.908 231.908 0 0 0 162.938-101.105 39.9 39.9 0 0 1 -17.529-7.129z" fill="#b6eaef"/><path d="m411.888 424.384a40 40 0 0 1 -46.906-.009l-9.694-7.02-9.681 7.011a40 40 0 0 1 -46.92 0l-9.687-7.011-9.691 7.016a40 40 0 0 1 -46.915 0l-9.691-7.016-9.664 7a40 40 0 0 1 -46.936-.006l-9.652-6.994-9.663 7a40 40 0 0 1 -46.941-.011l-9.64-6.988-.487.353a231.822 231.822 0 0 0 332.48.077l-.594-.43z" fill="#acdee3"/></svg>